# MagicaVoxel @ Ephtracy

# group
o 

# material
mtllib bread.mtl
usemtl palette

# normals
vn -1 0 0
vn 1 0 0
vn 0 0 1
vn 0 0 -1
vn 0 -1 0
vn 0 1 0

# texcoords
vt 0.0644531 0.5
vt 0.0683594 0.5
vt 0.0722656 0.5

# verts
v 0 2 -0.1
v 0 2 -0.3
v 0 2.1 -0.1
v 0 2.1 -0.3
v 0 2.3 -0.9
v 0 2.3 -1.7
v 0 2.5 -0.9
v 0 2.5 -1.7
v 0.1 2 0
v 0.1 2 -0.1
v 0.1 2 -0.3
v 0.1 2 -0.7
v 0.1 2 -0.9
v 0.1 2 -1.7
v 0.1 2.1 0
v 0.1 2.1 -0.1
v 0.1 2.1 -0.3
v 0.1 2.1 -0.7
v 0.1 2.3 -0.9
v 0.1 2.3 -1.7
v 0.1 2.5 -0.9
v 0.1 2.5 -1.7
v 0.1 2.6 -0.9
v 0.1 2.6 -1.7
v 0.7 2 0
v 0.7 2 -0.1
v 0.7 2 -0.3
v 0.7 2 -0.7
v 0.7 2 -0.9
v 0.7 2 -1.7
v 0.7 2.1 0
v 0.7 2.1 -0.1
v 0.7 2.1 -0.3
v 0.7 2.1 -0.7
v 0.7 2.3 -0.9
v 0.7 2.3 -1.7
v 0.7 2.5 -0.9
v 0.7 2.5 -1.7
v 0.7 2.6 -0.9
v 0.7 2.6 -1.7
v 0.8 2 -0.1
v 0.8 2 -0.3
v 0.8 2.1 -0.1
v 0.8 2.1 -0.3
v 0.8 2.3 -0.9
v 0.8 2.3 -1.7
v 0.8 2.5 -0.9
v 0.8 2.5 -1.7
v 0.1 2 0
v 0.1 2.1 0
v 0.7 2 0
v 0.7 2.1 0
v 0 2 -0.1
v 0 2.1 -0.1
v 0.1 2 -0.1
v 0.1 2.1 -0.1
v 0.7 2 -0.1
v 0.7 2.1 -0.1
v 0.8 2 -0.1
v 0.8 2.1 -0.1
v 0 2.3 -0.9
v 0 2.5 -0.9
v 0.1 2 -0.9
v 0.1 2.3 -0.9
v 0.1 2.5 -0.9
v 0.1 2.6 -0.9
v 0.2 2 -0.9
v 0.2 2.3 -0.9
v 0.2 2.4 -0.9
v 0.3 2.1 -0.9
v 0.3 2.2 -0.9
v 0.3 2.3 -0.9
v 0.3 2.4 -0.9
v 0.4 2.1 -0.9
v 0.4 2.2 -0.9
v 0.5 2.2 -0.9
v 0.5 2.3 -0.9
v 0.6 2 -0.9
v 0.6 2.2 -0.9
v 0.6 2.3 -0.9
v 0.7 2 -0.9
v 0.7 2.3 -0.9
v 0.7 2.5 -0.9
v 0.7 2.6 -0.9
v 0.8 2.3 -0.9
v 0.8 2.5 -0.9
v 0 2 -0.3
v 0 2.1 -0.3
v 0.1 2 -0.3
v 0.1 2.1 -0.3
v 0.7 2 -0.3
v 0.7 2.1 -0.3
v 0.8 2 -0.3
v 0.8 2.1 -0.3
v 0.1 2 -0.7
v 0.1 2.1 -0.7
v 0.2 2 -0.7
v 0.2 2.1 -0.7
v 0.6 2 -0.7
v 0.6 2.1 -0.7
v 0.7 2 -0.7
v 0.7 2.1 -0.7
v 0 2.3 -1.7
v 0 2.5 -1.7
v 0.1 2 -1.7
v 0.1 2.3 -1.7
v 0.1 2.5 -1.7
v 0.1 2.6 -1.7
v 0.2 2 -1.7
v 0.2 2.3 -1.7
v 0.6 2 -1.7
v 0.6 2.3 -1.7
v 0.7 2 -1.7
v 0.7 2.3 -1.7
v 0.7 2.5 -1.7
v 0.7 2.6 -1.7
v 0.8 2.3 -1.7
v 0.8 2.5 -1.7
v 0.1 2 0
v 0.7 2 0
v 0 2 -0.1
v 0.1 2 -0.1
v 0.5 2 -0.1
v 0.6 2 -0.1
v 0.7 2 -0.1
v 0.8 2 -0.1
v 0.2 2 -0.2
v 0.3 2 -0.2
v 0.5 2 -0.2
v 0.6 2 -0.2
v 0 2 -0.3
v 0.1 2 -0.3
v 0.2 2 -0.3
v 0.3 2 -0.3
v 0.6 2 -0.3
v 0.7 2 -0.3
v 0.8 2 -0.3
v 0.4 2 -0.5
v 0.5 2 -0.5
v 0.4 2 -0.6
v 0.5 2 -0.6
v 0.1 2 -0.7
v 0.2 2 -0.7
v 0.6 2 -0.7
v 0.7 2 -0.7
v 0.1 2 -0.9
v 0.2 2 -0.9
v 0.6 2 -0.9
v 0.7 2 -0.9
v 0.2 2 -1
v 0.6 2 -1
v 0.2 2 -1.6
v 0.6 2 -1.6
v 0.1 2 -1.7
v 0.2 2 -1.7
v 0.6 2 -1.7
v 0.7 2 -1.7
v 0 2.3 -0.9
v 0.1 2.3 -0.9
v 0.7 2.3 -0.9
v 0.8 2.3 -0.9
v 0 2.3 -1.7
v 0.1 2.3 -1.7
v 0.7 2.3 -1.7
v 0.8 2.3 -1.7
v 0.1 2.1 0
v 0.7 2.1 0
v 0 2.1 -0.1
v 0.1 2.1 -0.1
v 0.5 2.1 -0.1
v 0.6 2.1 -0.1
v 0.7 2.1 -0.1
v 0.8 2.1 -0.1
v 0.2 2.1 -0.2
v 0.3 2.1 -0.2
v 0.5 2.1 -0.2
v 0.6 2.1 -0.2
v 0 2.1 -0.3
v 0.1 2.1 -0.3
v 0.2 2.1 -0.3
v 0.3 2.1 -0.3
v 0.6 2.1 -0.3
v 0.7 2.1 -0.3
v 0.8 2.1 -0.3
v 0.4 2.1 -0.5
v 0.5 2.1 -0.5
v 0.4 2.1 -0.6
v 0.5 2.1 -0.6
v 0.1 2.1 -0.7
v 0.2 2.1 -0.7
v 0.6 2.1 -0.7
v 0.7 2.1 -0.7
v 0 2.5 -0.9
v 0.1 2.5 -0.9
v 0.7 2.5 -0.9
v 0.8 2.5 -0.9
v 0 2.5 -1.7
v 0.1 2.5 -1.7
v 0.7 2.5 -1.7
v 0.8 2.5 -1.7
v 0.1 2.6 -0.9
v 0.7 2.6 -0.9
v 0.1 2.6 -1.7
v 0.7 2.6 -1.7

# faces
f 3/1/1 2/1/1 1/1/1
f 4/1/1 2/1/1 3/1/1
f 7/1/1 6/1/1 5/1/1
f 8/1/1 6/1/1 7/1/1
f 15/1/1 10/1/1 9/1/1
f 16/1/1 10/1/1 15/1/1
f 17/1/1 12/1/1 11/1/1
f 18/1/1 12/1/1 17/1/1
f 19/1/1 14/1/1 13/1/1
f 20/1/1 14/1/1 19/1/1
f 23/1/1 22/1/1 21/1/1
f 24/1/1 22/1/1 23/1/1
f 25/1/2 26/1/2 31/1/2
f 31/1/2 26/1/2 32/1/2
f 27/1/2 28/1/2 33/1/2
f 33/1/2 28/1/2 34/1/2
f 29/1/2 30/1/2 35/1/2
f 35/1/2 30/1/2 36/1/2
f 37/1/2 38/1/2 39/1/2
f 39/1/2 38/1/2 40/1/2
f 41/1/2 42/1/2 43/1/2
f 43/1/2 42/1/2 44/1/2
f 45/1/2 46/1/2 47/1/2
f 47/1/2 46/1/2 48/1/2
f 51/1/3 50/1/3 49/1/3
f 52/1/3 50/1/3 51/1/3
f 55/1/3 54/1/3 53/1/3
f 56/1/3 54/1/3 55/1/3
f 59/1/3 58/1/3 57/1/3
f 60/1/3 58/1/3 59/1/3
f 64/1/3 62/1/3 61/1/3
f 65/1/3 62/1/3 64/1/3
f 67/1/3 64/1/3 63/1/3
f 68/2/3 65/2/3 64/2/3
f 68/1/3 64/1/3 67/1/3
f 69/2/3 65/2/3 68/2/3
f 70/2/3 68/2/3 67/2/3
f 71/2/3 68/2/3 70/2/3
f 72/3/3 69/3/3 68/3/3
f 72/2/3 68/2/3 71/2/3
f 73/2/3 65/2/3 69/2/3
f 73/3/3 69/3/3 72/3/3
f 74/3/3 71/3/3 70/3/3
f 74/2/3 70/2/3 67/2/3
f 75/2/3 72/2/3 71/2/3
f 75/3/3 71/3/3 74/3/3
f 75/2/3 73/2/3 72/2/3
f 76/2/3 75/2/3 74/2/3
f 76/2/3 73/2/3 75/2/3
f 77/2/3 73/2/3 76/2/3
f 78/2/3 74/2/3 67/2/3
f 78/2/3 76/2/3 74/2/3
f 79/3/3 77/3/3 76/3/3
f 79/2/3 76/2/3 78/2/3
f 80/2/3 73/2/3 77/2/3
f 80/3/3 77/3/3 79/3/3
f 81/1/3 79/1/3 78/1/3
f 81/1/3 80/1/3 79/1/3
f 82/2/3 73/2/3 80/2/3
f 82/1/3 80/1/3 81/1/3
f 83/1/3 66/1/3 65/1/3
f 83/2/3 73/2/3 82/2/3
f 83/2/3 65/2/3 73/2/3
f 84/1/3 66/1/3 83/1/3
f 85/1/3 83/1/3 82/1/3
f 86/1/3 83/1/3 85/1/3
f 87/1/4 88/1/4 89/1/4
f 89/1/4 88/1/4 90/1/4
f 91/1/4 92/1/4 93/1/4
f 93/1/4 92/1/4 94/1/4
f 95/1/4 96/1/4 97/1/4
f 97/1/4 96/1/4 98/1/4
f 97/2/4 98/2/4 99/2/4
f 99/2/4 98/2/4 100/2/4
f 99/1/4 100/1/4 101/1/4
f 101/1/4 100/1/4 102/1/4
f 103/1/4 104/1/4 106/1/4
f 106/1/4 104/1/4 107/1/4
f 105/1/4 106/1/4 109/1/4
f 106/2/4 107/2/4 110/2/4
f 109/1/4 106/1/4 110/1/4
f 109/2/4 110/2/4 111/2/4
f 110/2/4 107/2/4 112/2/4
f 111/2/4 110/2/4 112/2/4
f 111/1/4 112/1/4 113/1/4
f 112/2/4 107/2/4 114/2/4
f 113/1/4 112/1/4 114/1/4
f 107/1/4 108/1/4 115/1/4
f 114/2/4 107/2/4 115/2/4
f 115/1/4 108/1/4 116/1/4
f 114/1/4 115/1/4 117/1/4
f 117/1/4 115/1/4 118/1/4
f 122/1/5 120/1/5 119/1/5
f 123/1/5 120/1/5 122/1/5
f 124/1/5 120/1/5 123/1/5
f 125/1/5 120/1/5 124/1/5
f 127/2/5 123/2/5 122/2/5
f 128/2/5 123/2/5 127/2/5
f 129/3/5 124/3/5 123/3/5
f 129/2/5 123/2/5 128/2/5
f 130/2/5 125/2/5 124/2/5
f 130/3/5 124/3/5 129/3/5
f 131/1/5 122/1/5 121/1/5
f 132/2/5 127/2/5 122/2/5
f 132/1/5 122/1/5 131/1/5
f 133/3/5 128/3/5 127/3/5
f 133/2/5 127/2/5 132/2/5
f 134/2/5 129/2/5 128/2/5
f 134/3/5 128/3/5 133/3/5
f 134/2/5 130/2/5 129/2/5
f 135/2/5 125/2/5 130/2/5
f 135/2/5 130/2/5 134/2/5
f 136/1/5 126/1/5 125/1/5
f 136/2/5 125/2/5 135/2/5
f 137/1/5 126/1/5 136/1/5
f 138/2/5 134/2/5 133/2/5
f 138/2/5 135/2/5 134/2/5
f 139/2/5 135/2/5 138/2/5
f 140/2/5 138/2/5 133/2/5
f 140/3/5 139/3/5 138/3/5
f 141/2/5 135/2/5 139/2/5
f 141/3/5 139/3/5 140/3/5
f 142/1/5 133/1/5 132/1/5
f 143/2/5 140/2/5 133/2/5
f 143/1/5 133/1/5 142/1/5
f 143/2/5 141/2/5 140/2/5
f 144/1/5 136/1/5 135/1/5
f 144/2/5 141/2/5 143/2/5
f 144/2/5 135/2/5 141/2/5
f 145/1/5 136/1/5 144/1/5
f 150/1/5 147/1/5 146/1/5
f 150/2/5 148/2/5 147/2/5
f 151/1/5 149/1/5 148/1/5
f 151/2/5 148/2/5 150/2/5
f 152/1/5 150/1/5 146/1/5
f 152/1/5 151/1/5 150/1/5
f 153/1/5 149/1/5 151/1/5
f 153/1/5 151/1/5 152/1/5
f 154/1/5 152/1/5 146/1/5
f 155/2/5 153/2/5 152/2/5
f 155/1/5 152/1/5 154/1/5
f 156/1/5 149/1/5 153/1/5
f 156/2/5 153/2/5 155/2/5
f 157/1/5 149/1/5 156/1/5
f 162/1/5 159/1/5 158/1/5
f 163/1/5 159/1/5 162/1/5
f 164/1/5 161/1/5 160/1/5
f 165/1/5 161/1/5 164/1/5
f 166/1/6 167/1/6 169/1/6
f 169/1/6 167/1/6 170/1/6
f 170/1/6 167/1/6 171/1/6
f 171/1/6 167/1/6 172/1/6
f 169/2/6 170/2/6 174/2/6
f 174/2/6 170/2/6 175/2/6
f 170/3/6 171/3/6 176/3/6
f 175/2/6 170/2/6 176/2/6
f 171/2/6 172/2/6 177/2/6
f 176/3/6 171/3/6 177/3/6
f 168/1/6 169/1/6 178/1/6
f 169/2/6 174/2/6 179/2/6
f 178/1/6 169/1/6 179/1/6
f 174/3/6 175/3/6 180/3/6
f 179/2/6 174/2/6 180/2/6
f 175/2/6 176/2/6 181/2/6
f 180/3/6 175/3/6 181/3/6
f 176/2/6 177/2/6 181/2/6
f 177/2/6 172/2/6 182/2/6
f 181/2/6 177/2/6 182/2/6
f 172/1/6 173/1/6 183/1/6
f 182/2/6 172/2/6 183/2/6
f 183/1/6 173/1/6 184/1/6
f 180/2/6 181/2/6 185/2/6
f 181/2/6 182/2/6 185/2/6
f 185/2/6 182/2/6 186/2/6
f 180/2/6 185/2/6 187/2/6
f 185/3/6 186/3/6 187/3/6
f 186/2/6 182/2/6 188/2/6
f 187/3/6 186/3/6 188/3/6
f 179/1/6 180/1/6 189/1/6
f 180/2/6 187/2/6 190/2/6
f 189/1/6 180/1/6 190/1/6
f 187/2/6 188/2/6 190/2/6
f 182/1/6 183/1/6 191/1/6
f 190/2/6 188/2/6 191/2/6
f 188/2/6 182/2/6 191/2/6
f 191/1/6 183/1/6 192/1/6
f 193/1/6 194/1/6 197/1/6
f 197/1/6 194/1/6 198/1/6
f 195/1/6 196/1/6 199/1/6
f 199/1/6 196/1/6 200/1/6
f 201/1/6 202/1/6 203/1/6
f 203/1/6 202/1/6 204/1/6
